# xmcd
#
# Track frame offsets: 
#        150
#        25044
#        48801
#        81795
#        102158
#        120244
#        139429
#        164706
#        177618
#        209131
#
# Disc length: 3060 seconds
#
# Revision: 0
# Processed by: cddbd v1.5.2PL0 Copyright (c) Steve Scherf et al.
# Submitted via: ExactAudioCopy v0.99pb4
#
DISCID=8b0bf20a
DTITLE=Charlotte and The Co-Stars - Win Love Win
DYEAR=2007
DGENRE=Rock
TTITLE0=Night Song
TTITLE1=Hi Ho Silver
TTITLE2=Waiting for the Rain
TTITLE3=Oh My God
TTITLE4=Be With You
TTITLE5=Hurt Myself
TTITLE6=Win Love Win
TTITLE7=Sign of Weakness
TTITLE8=Life of a Dead
TTITLE9=When Silence Calls
EXTD=
EXTT0=
EXTT1=
EXTT2=
EXTT3=
EXTT4=
EXTT5=
EXTT6=
EXTT7=
EXTT8=
EXTT9=
PLAYORDER=
